<svg xmlns="http://www.w3.org/2000/svg" aria-hidden="true" style="position:absolute;width:0;height:0;overflow:hidden"><defs><symbol id="instagram" viewBox="0 0 32 32"><path d="M9.604.579c1.655-.075 2.184-.094 6.397-.094h-.005c4.215 0 4.742.018 6.397.094 1.652.076 2.78.337 3.769.721 1.022.396 1.884.926 2.747 1.789s1.393 1.728 1.791 2.748c.381.987.643 2.114.721 3.766.074 1.655.094 2.184.094 6.398s-.02 4.741-.094 6.396c-.078 1.651-.339 2.779-.721 3.766a7.62 7.62 0 0 1-1.791 2.748 7.6 7.6 0 0 1-2.746 1.791c-.987.384-2.116.645-3.768.721-1.655.075-2.182.094-6.396.094s-4.742-.018-6.397-.094c-1.651-.076-2.779-.337-3.766-.721-1.02-.396-1.885-.928-2.748-1.791s-1.393-1.728-1.789-2.748c-.383-.987-.645-2.114-.721-3.766-.075-1.655-.094-2.182-.094-6.396s.019-4.743.093-6.398c.074-1.651.336-2.779.721-3.766.398-1.02.928-1.886 1.791-2.748S4.817 1.696 5.837 1.3C6.824.916 7.951.655 9.603.579zm5.88 2.702h-.875v-.004c-2.892.003-3.446.023-4.878.087-1.513.07-2.334.322-2.881.535-.724.282-1.241.618-1.784 1.161s-.88 1.06-1.161 1.784c-.212.547-.465 1.368-.534 2.881-.074 1.636-.089 2.124-.089 6.268s.015 4.635.089 6.27c.069 1.513.322 2.334.534 2.88.282.724.618 1.24 1.161 1.783s1.06.879 1.784 1.16c.547.212 1.368.465 2.881.535 1.636.074 2.127.09 6.27.09s4.634-.016 6.269-.09c1.513-.069 2.334-.321 2.881-.535.724-.281 1.24-.617 1.783-1.16s.88-1.058 1.161-1.782c.212-.546.465-1.367.534-2.88.074-1.636.091-2.127.091-6.268s-.016-4.632-.091-6.268c-.069-1.513-.322-2.334-.534-2.88-.282-.724-.618-1.241-1.161-1.784s-1.059-.879-1.783-1.16c-.547-.212-1.368-.465-2.881-.534-1.636-.074-2.127-.089-6.269-.089h-.517zM8.034 16a7.968 7.968 0 1 1 15.934 0 7.968 7.968 0 0 1-15.934 0zm13.139 0a5.173 5.173 0 1 0-10.345.001A5.173 5.173 0 0 0 21.173 16zm1.249-8.282c0-1.028.834-1.861 1.862-1.861v-.001a1.862 1.862 0 1 1-1.862 1.862z"/></symbol><symbol id="facebook" viewBox="0 0 16 32"><path d="M10.305 31.65V15.823h4.369l.579-5.454h-4.948l.007-2.73c0-1.423.135-2.185 2.178-2.185h2.731V-.001h-4.37c-5.249 0-7.096 2.646-7.096 7.095v3.275H.483v5.454h3.272v15.826h6.548z"/></symbol><symbol id="telegram" viewBox="0 0 37 32"><path d="M14.608 20.326v-.001L30.227 6.23c.685-.608-.15-.905-1.06-.353L9.89 18.038l-8.326-2.599c-1.798-.551-1.811-1.786.404-2.675L34.414.253c1.482-.673 2.912.356 2.346 2.624l-5.526 26.039c-.386 1.85-1.504 2.293-3.053 1.438l-8.417-6.219-4.046 3.934-.038.037c-.453.44-.827.805-1.646.805l.573-8.586z"/></symbol><symbol id="menu" viewBox="0 0 32 32"><path d="M6.4 11.733V9.6h19.2v2.133H6.4zm0 5.334h19.2v-2.133H6.4v2.133zm0 5.333h19.2v-2.133H6.4V22.4z"/></symbol><symbol id="cross" viewBox="0 0 32 32"><path d="M23.733 10.304 22.229 8.8l-5.963 5.963L10.303 8.8l-1.504 1.504 5.963 5.963-5.963 5.963 1.504 1.504 5.963-5.963 5.963 5.963 1.504-1.504-5.963-5.963 5.963-5.963z"/></symbol><symbol id="arrow" viewBox="0 0 55 32"><path d="M2.551 2.551c.517-.517 1.231-.837 2.021-.837s1.503.32 2.021.837L27.43 23.388 48.267 2.551a2.858 2.858 0 1 1 4.042 4.042L29.452 29.45c-.517.517-1.231.837-2.021.837s-1.503-.32-2.021-.837L2.553 6.593c-.517-.517-.837-1.231-.837-2.021s.32-1.503.837-2.021z"/></symbol></defs></svg>